<svg width="26" height="23" viewBox="0 0 26 23" fill="none" xmlns="http://www.w3.org/2000/svg">
<path d="M13 0C8.814 0 3.38086 1.04883 3.38086 1.04883L3.36719 1.06445C1.46066 1.36936 0 3.00762 0 5V11V11.002V17V17.002C0.00186045 17.9535 0.34287 18.8732 0.961798 19.5959C1.58073 20.3187 2.43703 20.7971 3.37695 20.9453L3.38086 20.9512C3.38086 20.9512 8.814 22.002 13 22.002C17.186 22.002 22.6191 20.9512 22.6191 20.9512L22.6211 20.9492C23.562 20.8013 24.4193 20.3225 25.0387 19.5989C25.6581 18.8753 25.999 17.9544 26 17.002V17V11.002V11V5C25.9986 4.04813 25.6578 3.12795 25.0388 2.40481C24.4199 1.68166 23.5633 1.20295 22.623 1.05469L22.6191 1.04883C22.6191 1.04883 17.186 0 13 0ZM10 6.39844L18 11L10 15.6016V6.39844Z" fill="white"/>
</svg>
